/* XPM */
static char *_44a64991fc941fbeb241baa95dc31eblvz4b7CgqGTiOgRA[] = {
/* columns rows colors chars-per-pixel */
"64 64 16 1 ",
"  c None",
". c #232323",
"X c #2F2F2F",
"o c gray23",
"O c #5B005B",
"+ c #4B4B4B",
"@ c gray34",
"# c #676767",
"$ c gray45",
"% c gray50",
"& c #C72B2B",
"* c #FF5757",
"= c #FF9B43",
"- c #FFF743",
"; c gray56",
": c gray67",
/* pixels */
"                                                                ",
"                                                                ",
"                                                                ",
"                                                                ",
"                                                                ",
"                                                                ",
"                                                                ",
"                                                                ",
"                   $     XXXXXXXXXXXXXX     $                   ",
"                   $$   Xoooo++++oooo+oX    $                   ",
"                   X#$ o@@o+@@@@@@@#@o@@X $#X                   ",
"                   Xo#$####o+@@#@@#@o@@@@$#+X                   ",
"                   X@o@##o@@#o@##@o+++oo#++@X                   ",
"                    Xooo@@&+ooo##ooo+&@o++@X                    ",
"                     Xoo@@X&*&@oo@&*&Xo@+@X                     ",
"                    X..ooo+$#%@##@$#@ooo@@..                    ",
"         XXXXXXXX+  .ooXXo@#%@@###@$@oooooXo  +XXXXXXXX         ",
"        Xo@+@$$$$X+@oooo.o+#%@@##@@@+ooXXooo@+X$$$$@+@oX        ",
"       Xo+@#%%%%%#X#@oooXXo@$%;@@%%@ooX@ooo+#X#%%%%%#@+o        ",
"       .@+@#%%%%##$@@@oooo.@%%%%%%%o+X@ooo+@@$##%%%%#@+@X       ",
"       oo@#$%%##$o%@#@@++X.o%%:o:o:%%Xooo+@@@%o$##%%$#@oX       ",
"       oo+##%####@;###@@+X..%oooooo=%Xoo@@###;@####%##+oX       ",
"       oXX@XX++@@%%####@++XoX=X=X==%@o+@#####%%@@++XX@XXX       ",
"      XX%#X%#XX#%@X###$#+++oo@=%=%=o@+@#$$###X@%#XX#%X#%@X      ",
"     X@$%%%%%%;X#..#$$$#@@@@oo=@=@o=+@#$%$$##..#X;%%%%%%$@X     ",
"     X@$%%%%%$$%@..@#$%%####%-@@=@#=+@$%%%$#@..@%$$%%%%%#@X     ",
"     Xo$o#%%o@$%@. X@$$%%%%%%%=@=#=$##%;%$$@X .@%$@o%%#o#oX     ",
"     Xo$o#%%X@%%@. X@@%%%%;%%$$-###$%%%%%%@@X .@%%@X%%#o#oX     ",
"     X@$$o@$o@$%@X  Xoo@@###oo%%%+o######ooX  X@%$@o$@o$+@X     ",
"      X##o@#o@;@X   Xooooooo@@o%o@@ooooooooX   X@;@o#@o#oX      ",
"       @#X@#X@#X     Xoo@@@@@oo$+o@@@@@@@oX     X#@X#@X#X       ",
"       X;XX;XX;X      Xooooo@$$$$$+ooooooX      X;XX;XX;        ",
"                      Xo+@#+@##%%$#@@@@@oX                      ",
"                      Xoooo+@@####@@@ooooX                      ",
"                     Xo+++oo++@@@+ooooooooX                     ",
"                     o+@@#@ooooooooo+++@@+@X                    ",
"                    Xo@@####oo@oooooooo@@@+X                    ",
"                    o+@@$$#@ooo+oo+ooo###@@+X                   ",
"                   Xo@@#%$#@@oooXoooo@####@+X                   ",
"                   X+@@#%%##@#ooXooo@@####@+oX                  ",
"                  X+@@##%%##@@ooXooo+@####@+oX                  ",
"                  Xo@@#$%%#@#@oo X@o+@####@+oX                  ",
"                  Xo@@#$%$#@#+X  X@o++@#$#@@ooX                 ",
"                  Xo@@#$%##@@oX   X+o+@#$#@@+oX                 ",
"                  Xo@#@##@@#@o     Xo++@##@#+oX                 ",
"                  X@+######@+o     X@++@@@@+ooX                 ",
"                   X@+#@@#++#o      Xoo+@@+ooXX                 ",
"                   Xo@++++@@@o      XooX++ooXoX                 ",
"                   Xo@@%%#@@@@o      oooXXXXooX                 ",
"                   Xo@@#$@@@@@o      XoooooooX                  ",
"                   Xo@@#$#@@@@o      XoooooooX                  ",
"                   Xo+@@$@@@+X        XooooooX                  ",
"                    +o@@@@+++X       X@oooo##+X                 ",
"                    Oo@@@@+o+X       Xo@#####+X                 ",
"                    Oo@#@+ooX        X+###$$#@X                 ",
"                    +o+#@+ooX        X+#$$$$##@X                ",
"                   Xo+o+@@oo@X       X+#%%%%$#@X                ",
"                   X+o++o@+o@X       X+@%%@%+#@X                ",
"                  X@+++++X+o@X        X@$%+%$o@X                ",
"                 X@##%%$@@+oX         X@o#$+#o#X                ",
"                X@%#%#%%@@@X             X;X;                   ",
"                X@%#;#%#@XX                                     ",
"                X@;o;o;@X                                       ",
"                 X;X;X;X                                        "
};
